<svg width="11302" height="4245" viewBox="0 0 11302 4245" fill="none" xmlns="http://www.w3.org/2000/svg">
<g clip-path="url(#clip0_1_17)">
<g clip-path="url(#clip1_1_17)">
<rect x="1194" y="1155" width="1934" height="1934" rx="967" stroke="black" stroke-width="66"/>
<path d="M1917 2459.2C1905.8 2459.2 1893.4 2457.2 1879.8 2453.2C1839 2443.6 1811 2418.8 1795.8 2378.8C1783 2348.4 1783.4 2314 1797 2275.6C1801.8 2262 1809 2246 1818.6 2227.6C1820.2 2224.4 1821.8 2220.8 1823.4 2216.8C1825.8 2212.8 1828.2 2209.2 1830.6 2206C1813 2215.6 1795 2226 1776.6 2237.2C1759 2247.6 1741 2257.6 1722.6 2267.2C1690.6 2287.2 1659.4 2305.6 1629 2322.4C1598.6 2338.4 1570.6 2352 1545 2363.2C1515.4 2376.8 1485 2377.6 1453.8 2365.6C1422.6 2353.6 1400.6 2332.4 1387.8 2302C1374.2 2271.6 1373.4 2241.2 1385.4 2210.8C1397.4 2179.6 1418.6 2157.6 1449 2144.8C1467.4 2136 1490.2 2124.4 1517.4 2110C1544.6 2094.8 1573 2078.4 1602.6 2060.8C1637.8 2040 1675 2018.8 1714.2 1997.2C1753.4 1974.8 1791.4 1955.6 1828.2 1939.6C1870.6 1918.8 1910.2 1904.8 1947 1897.6C1972.6 1891.2 1996.6 1887.6 2019 1886.8C2041.4 1886 2062.6 1888.4 2082.6 1894C2126.6 1906.8 2156.6 1934 2172.6 1975.6C2184.6 2005.2 2186.2 2034.8 2177.4 2064.4C2169.4 2093.2 2158.6 2120.4 2145 2146C2147.4 2145.2 2149.8 2144.4 2152.2 2143.6C2155.4 2142.8 2158.2 2142 2160.6 2141.2C2191 2130 2221 2131.6 2250.6 2146C2281 2159.6 2301.8 2182 2313 2213.2C2324.2 2244.4 2323 2275.2 2309.4 2305.6C2295.8 2335.2 2273 2355.6 2241 2366.8C2204.2 2379.6 2169.8 2391.6 2137.8 2402.8C2106.6 2414 2079 2423.6 2055 2431.6C2022.2 2441.2 1995 2448.4 1973.4 2453.2C1952.6 2457.2 1933.8 2459.2 1917 2459.2Z" fill="black"/>
<path d="M2539.64 2459.2C2528.44 2459.2 2516.04 2457.2 2502.44 2453.2C2461.64 2443.6 2433.64 2418.8 2418.44 2378.8C2405.64 2348.4 2406.04 2314 2419.64 2275.6C2424.44 2262 2431.64 2246 2441.24 2227.6C2442.84 2224.4 2444.44 2220.8 2446.04 2216.8C2448.44 2212.8 2450.84 2209.2 2453.24 2206C2435.64 2215.6 2417.64 2226 2399.24 2237.2C2381.64 2247.6 2363.64 2257.6 2345.24 2267.2C2313.24 2287.2 2282.04 2305.6 2251.64 2322.4C2221.24 2338.4 2193.24 2352 2167.64 2363.2C2138.04 2376.8 2107.64 2377.6 2076.44 2365.6C2045.24 2353.6 2023.24 2332.4 2010.44 2302C1996.84 2271.6 1996.04 2241.2 2008.04 2210.8C2020.04 2179.6 2041.24 2157.6 2071.64 2144.8C2090.04 2136 2112.84 2124.4 2140.04 2110C2167.24 2094.8 2195.64 2078.4 2225.24 2060.8C2260.44 2040 2297.64 2018.8 2336.84 1997.2C2376.04 1974.8 2414.04 1955.6 2450.84 1939.6C2493.24 1918.8 2532.84 1904.8 2569.64 1897.6C2595.24 1891.2 2619.24 1887.6 2641.64 1886.8C2664.04 1886 2685.24 1888.4 2705.24 1894C2749.24 1906.8 2779.24 1934 2795.24 1975.6C2807.24 2005.2 2808.84 2034.8 2800.04 2064.4C2792.04 2093.2 2781.24 2120.4 2767.64 2146C2770.04 2145.2 2772.44 2144.4 2774.84 2143.6C2778.04 2142.8 2780.84 2142 2783.24 2141.2C2813.64 2130 2843.64 2131.6 2873.24 2146C2903.64 2159.6 2924.44 2182 2935.64 2213.2C2946.84 2244.4 2945.64 2275.2 2932.04 2305.6C2918.44 2335.2 2895.64 2355.6 2863.64 2366.8C2826.84 2379.6 2792.44 2391.6 2760.44 2402.8C2729.24 2414 2701.64 2423.6 2677.64 2431.6C2644.84 2441.2 2617.64 2448.4 2596.04 2453.2C2575.24 2457.2 2556.44 2459.2 2539.64 2459.2Z" fill="#6D1CDA"/>
</g>
<rect x="1167" y="1128" width="1988" height="1988" rx="994" stroke="black" stroke-width="12"/>
<path d="M3971.2 1628.6C4052.8 1628.6 4126.6 1649.6 4192.6 1691.6C4258.6 1732.4 4310.2 1790 4347.4 1864.4C4385.8 1938.8 4405 2022.8 4405 2116.4C4405 2210 4385.8 2294 4347.4 2368.4C4310.2 2441.6 4258.6 2499.2 4192.6 2541.2C4126.6 2583.2 4054 2604.2 3974.8 2604.2C3912.4 2604.2 3854.2 2590.4 3800.2 2562.8C3746.2 2535.2 3702.4 2501.6 3668.8 2462V2861.6C3668.8 2885.6 3660.4 2906 3643.6 2922.8C3628 2939.6 3607.6 2948 3582.4 2948C3558.4 2948 3538 2939.6 3521.2 2922.8C3505.6 2907.2 3497.8 2886.8 3497.8 2861.6V1729.4C3497.8 1704.2 3505.6 1683.2 3521.2 1666.4C3536.8 1649.6 3557.2 1641.2 3582.4 1641.2C3607.6 1641.2 3628 1649.6 3643.6 1666.4C3660.4 1683.2 3668.8 1704.2 3668.8 1729.4V1781.6C3697.6 1739.6 3739.6 1703.6 3794.8 1673.6C3850 1643.6 3908.8 1628.6 3971.2 1628.6ZM3951.4 2445.8C4006.6 2445.8 4056.4 2431.4 4100.8 2402.6C4145.2 2373.8 4179.4 2334.8 4203.4 2285.6C4228.6 2235.2 4241.2 2178.8 4241.2 2116.4C4241.2 2054 4228.6 1998.2 4203.4 1949C4179.4 1898.6 4145.2 1859 4100.8 1830.2C4056.4 1801.4 4006.6 1787 3951.4 1787C3895 1787 3844.6 1801.4 3800.2 1830.2C3755.8 1857.8 3721 1896.8 3695.8 1947.2C3671.8 1997.6 3659.8 2054 3659.8 2116.4C3659.8 2178.8 3671.8 2235.2 3695.8 2285.6C3721 2336 3755.8 2375.6 3800.2 2404.4C3844.6 2432 3895 2445.8 3951.4 2445.8ZM4893.26 1623.2C4924.46 1623.2 4951.46 1631.6 4974.26 1648.4C4997.06 1664 5008.46 1683.8 5008.46 1707.8C5008.46 1736.6 5000.66 1758.8 4985.06 1774.4C4970.66 1788.8 4952.66 1796 4931.06 1796C4920.26 1796 4904.06 1792.4 4882.46 1785.2C4857.26 1776.8 4837.46 1772.6 4823.06 1772.6C4785.86 1772.6 4749.26 1785.8 4713.26 1812.2C4678.46 1837.4 4649.66 1872.8 4626.86 1918.4C4605.26 1962.8 4594.46 2012.6 4594.46 2067.8V2501.6C4594.46 2525.6 4586.06 2546 4569.26 2562.8C4553.66 2579.6 4533.26 2588 4508.06 2588C4482.86 2588 4462.46 2580.2 4446.86 2564.6C4431.26 2547.8 4423.46 2526.8 4423.46 2501.6V1731.2C4423.46 1707.2 4431.26 1686.8 4446.86 1670C4463.66 1653.2 4484.06 1644.8 4508.06 1644.8C4533.26 1644.8 4553.66 1653.2 4569.26 1670C4586.06 1686.8 4594.46 1707.2 4594.46 1731.2V1823C4620.86 1764.2 4660.46 1716.8 4713.26 1680.8C4766.06 1643.6 4826.06 1624.4 4893.26 1623.2ZM5774.59 2080.4C5773.39 2102 5764.39 2120.6 5747.59 2136.2C5730.79 2150.6 5710.99 2157.8 5688.19 2157.8H5054.59C5062.99 2245.4 5095.99 2315.6 5153.59 2368.4C5212.39 2421.2 5283.79 2447.6 5367.79 2447.6C5425.39 2447.6 5472.19 2439.2 5508.19 2422.4C5544.19 2405.6 5575.99 2384 5603.59 2357.6C5621.59 2346.8 5638.99 2341.4 5655.79 2341.4C5676.19 2341.4 5692.99 2348.6 5706.19 2363C5720.59 2377.4 5727.79 2394.2 5727.79 2413.4C5727.79 2438.6 5715.79 2461.4 5691.79 2481.8C5656.99 2516.6 5610.79 2546 5553.19 2570C5495.59 2594 5436.79 2606 5376.79 2606C5279.59 2606 5193.79 2585.6 5119.39 2544.8C5046.19 2504 4989.19 2447 4948.39 2373.8C4908.79 2300.6 4888.99 2217.8 4888.99 2125.4C4888.99 2024.6 4909.39 1936.4 4950.19 1860.8C4992.19 1784 5046.79 1725.2 5113.99 1684.4C5182.39 1643.6 5255.59 1623.2 5333.59 1623.2C5410.39 1623.2 5482.39 1643 5549.59 1682.6C5616.79 1722.2 5670.79 1776.8 5711.59 1846.4C5752.39 1916 5773.39 1994 5774.59 2080.4ZM5333.59 1781.6C5266.39 1781.6 5208.19 1800.8 5158.99 1839.2C5109.79 1876.4 5077.39 1934.6 5061.79 2013.8H5592.79V1999.4C5586.79 1935.8 5557.99 1883.6 5506.39 1842.8C5455.99 1802 5398.39 1781.6 5333.59 1781.6ZM6266.55 1628.6C6348.15 1628.6 6421.95 1649.6 6487.95 1691.6C6553.95 1732.4 6605.55 1790 6642.75 1864.4C6681.15 1938.8 6700.35 2022.8 6700.35 2116.4C6700.35 2210 6681.15 2294 6642.75 2368.4C6605.55 2441.6 6553.95 2499.2 6487.95 2541.2C6421.95 2583.2 6349.35 2604.2 6270.15 2604.2C6207.75 2604.2 6149.55 2590.4 6095.55 2562.8C6041.55 2535.2 5997.75 2501.6 5964.15 2462V2861.6C5964.15 2885.6 5955.75 2906 5938.95 2922.8C5923.35 2939.6 5902.95 2948 5877.75 2948C5853.75 2948 5833.35 2939.6 5816.55 2922.8C5800.95 2907.2 5793.15 2886.8 5793.15 2861.6V1729.4C5793.15 1704.2 5800.95 1683.2 5816.55 1666.4C5832.15 1649.6 5852.55 1641.2 5877.75 1641.2C5902.95 1641.2 5923.35 1649.6 5938.95 1666.4C5955.75 1683.2 5964.15 1704.2 5964.15 1729.4V1781.6C5992.95 1739.6 6034.95 1703.6 6090.15 1673.6C6145.35 1643.6 6204.15 1628.6 6266.55 1628.6ZM6246.75 2445.8C6301.95 2445.8 6351.75 2431.4 6396.15 2402.6C6440.55 2373.8 6474.75 2334.8 6498.75 2285.6C6523.95 2235.2 6536.55 2178.8 6536.55 2116.4C6536.55 2054 6523.95 1998.2 6498.75 1949C6474.75 1898.6 6440.55 1859 6396.15 1830.2C6351.75 1801.4 6301.95 1787 6246.75 1787C6190.35 1787 6139.95 1801.4 6095.55 1830.2C6051.15 1857.8 6016.35 1896.8 5991.15 1947.2C5967.15 1997.6 5955.15 2054 5955.15 2116.4C5955.15 2178.8 5967.15 2235.2 5991.15 2285.6C6016.35 2336 6051.15 2375.6 6095.55 2404.4C6139.95 2432 6190.35 2445.8 6246.75 2445.8Z" fill="black"/>
<path d="M7192.22 1623.2C7273.82 1623.2 7347.62 1644.2 7413.62 1686.2C7479.62 1728.2 7531.22 1786.4 7568.42 1860.8C7606.82 1935.2 7626.02 2019.2 7626.02 2112.8C7626.02 2206.4 7606.82 2291 7568.42 2366.6C7531.22 2442.2 7479.62 2501 7413.62 2543C7347.62 2585 7275.02 2606 7195.82 2606C7133.42 2606 7075.22 2592.2 7021.22 2564.6C6967.22 2537 6923.42 2502.8 6889.82 2462V2514.2C6889.82 2538.2 6881.42 2558.6 6864.62 2575.4C6849.02 2592.2 6828.62 2600.6 6803.42 2600.6C6779.42 2600.6 6759.02 2592.8 6742.22 2577.2C6726.62 2560.4 6718.82 2539.4 6718.82 2514.2V1342.4C6718.82 1317.2 6726.62 1296.8 6742.22 1281.2C6757.82 1264.4 6778.22 1256 6803.42 1256C6828.62 1256 6849.02 1264.4 6864.62 1281.2C6881.42 1298 6889.82 1318.4 6889.82 1342.4V1781.6C6918.62 1738.4 6960.62 1701.2 7015.82 1670C7071.02 1638.8 7129.82 1623.2 7192.22 1623.2ZM7172.42 2447.6C7227.62 2447.6 7277.42 2433.2 7321.82 2404.4C7366.22 2374.4 7400.42 2334.2 7424.42 2283.8C7449.62 2232.2 7462.22 2175.2 7462.22 2112.8C7462.22 2050.4 7449.62 1994 7424.42 1943.6C7400.42 1893.2 7366.22 1853.6 7321.82 1824.8C7277.42 1796 7227.62 1781.6 7172.42 1781.6C7116.02 1781.6 7065.62 1796 7021.22 1824.8C6976.82 1853.6 6942.02 1893.2 6916.82 1943.6C6892.82 1992.8 6880.82 2049.2 6880.82 2112.8C6880.82 2176.4 6892.82 2233.4 6916.82 2283.8C6942.02 2334.2 6976.82 2374.4 7021.22 2404.4C7065.62 2433.2 7116.02 2447.6 7172.42 2447.6ZM8537.28 2116.4C8537.28 2210 8516.28 2294 8474.28 2368.4C8432.28 2442.8 8374.68 2501 8301.48 2543C8229.48 2585 8149.68 2606 8062.08 2606C7974.48 2606 7894.08 2585 7820.88 2543C7748.88 2501 7691.88 2442.8 7649.88 2368.4C7607.88 2294 7586.88 2210 7586.88 2116.4C7586.88 2022.8 7607.88 1938.2 7649.88 1862.6C7691.88 1787 7748.88 1728.2 7820.88 1686.2C7894.08 1644.2 7974.48 1623.2 8062.08 1623.2C8149.68 1623.2 8229.48 1644.2 8301.48 1686.2C8374.68 1728.2 8432.28 1787 8474.28 1862.6C8516.28 1938.2 8537.28 2022.8 8537.28 2116.4ZM8366.28 2116.4C8366.28 2051.6 8352.48 1994 8324.88 1943.6C8298.48 1892 8261.88 1852.4 8215.08 1824.8C8169.48 1796 8118.48 1781.6 8062.08 1781.6C8005.68 1781.6 7954.08 1796 7907.28 1824.8C7861.68 1852.4 7825.08 1892 7797.48 1943.6C7771.08 1994 7757.88 2051.6 7757.88 2116.4C7757.88 2180 7771.08 2237 7797.48 2287.4C7825.08 2337.8 7861.68 2377.4 7907.28 2406.2C7954.08 2433.8 8005.68 2447.6 8062.08 2447.6C8118.48 2447.6 8169.48 2433.8 8215.08 2406.2C8261.88 2377.4 8298.48 2337.8 8324.88 2287.4C8352.48 2237 8366.28 2180 8366.28 2116.4ZM9448.88 2116.4C9448.88 2210 9427.88 2294 9385.88 2368.4C9343.88 2442.8 9286.28 2501 9213.08 2543C9141.08 2585 9061.28 2606 8973.68 2606C8886.08 2606 8805.68 2585 8732.48 2543C8660.48 2501 8603.48 2442.8 8561.48 2368.4C8519.48 2294 8498.48 2210 8498.48 2116.4C8498.48 2022.8 8519.48 1938.2 8561.48 1862.6C8603.48 1787 8660.48 1728.2 8732.48 1686.2C8805.68 1644.2 8886.08 1623.2 8973.68 1623.2C9061.28 1623.2 9141.08 1644.2 9213.08 1686.2C9286.28 1728.2 9343.88 1787 9385.88 1862.6C9427.88 1938.2 9448.88 2022.8 9448.88 2116.4ZM9277.88 2116.4C9277.88 2051.6 9264.08 1994 9236.48 1943.6C9210.08 1892 9173.48 1852.4 9126.68 1824.8C9081.08 1796 9030.08 1781.6 8973.68 1781.6C8917.28 1781.6 8865.68 1796 8818.88 1824.8C8773.28 1852.4 8736.68 1892 8709.08 1943.6C8682.68 1994 8669.48 2051.6 8669.48 2116.4C8669.48 2180 8682.68 2237 8709.08 2287.4C8736.68 2337.8 8773.28 2377.4 8818.88 2406.2C8865.68 2433.8 8917.28 2447.6 8973.68 2447.6C9030.08 2447.6 9081.08 2433.8 9126.68 2406.2C9173.48 2377.4 9210.08 2337.8 9236.48 2287.4C9264.08 2237 9277.88 2180 9277.88 2116.4ZM10238.1 2438.6C10256.1 2457.8 10265.1 2478.8 10265.1 2501.6C10265.1 2525.6 10255.5 2546 10236.3 2562.8C10218.3 2578.4 10199.1 2586.2 10178.7 2586.2C10152.3 2586.2 10131.3 2576.6 10115.7 2557.4L9761.08 2181.2L9653.08 2278.4V2501.6C9653.08 2525.6 9644.68 2546 9627.88 2562.8C9612.28 2579.6 9592.48 2588 9568.48 2588C9543.28 2588 9522.28 2579.6 9505.48 2562.8C9489.88 2546 9482.08 2525.6 9482.08 2501.6V1342.4C9482.08 1318.4 9489.88 1298 9505.48 1281.2C9522.28 1264.4 9543.28 1256 9568.48 1256C9592.48 1256 9612.28 1264.4 9627.88 1281.2C9644.68 1298 9653.08 1318.4 9653.08 1342.4V2073.2L10094.1 1668.2C10114.5 1650.2 10135.5 1641.2 10157.1 1641.2C10177.5 1641.2 10196.1 1650.2 10212.9 1668.2C10229.7 1685 10238.1 1703 10238.1 1722.2C10238.1 1746.2 10226.7 1767.8 10203.9 1787L9892.48 2064.2L10238.1 2438.6Z" fill="#6D1CDA"/>
</g>
<defs>
<clipPath id="clip0_1_17">
<rect width="11302" height="4245" fill="white"/>
</clipPath>
<clipPath id="clip1_1_17">
<rect x="1161" y="1122" width="2000" height="2000" rx="1000" fill="white"/>
</clipPath>
</defs>
</svg>
